<?xml version="1.0" encoding="UTF-8" standalone="no"?>
<svg
   xmlns:dc="http://purl.org/dc/elements/1.1/"
   xmlns:cc="http://creativecommons.org/ns#"
   xmlns:rdf="http://www.w3.org/1999/02/22-rdf-syntax-ns#"
   xmlns:svg="http://www.w3.org/2000/svg"
   xmlns="http://www.w3.org/2000/svg"
   viewBox="0 0 499.51999 235.17332"
   height="235.17332"
   width="499.51999"
   xml:space="preserve"
   id="svg2"
   version="1.1"><metadata
     id="metadata8"><rdf:RDF><cc:Work
         rdf:about=""><dc:format>image/svg+xml</dc:format><dc:type
           rdf:resource="http://purl.org/dc/dcmitype/StillImage" /></cc:Work></rdf:RDF></metadata><defs
     id="defs6"><clipPath
       id="clipPath20"
       clipPathUnits="userSpaceOnUse"><path
         id="path18"
         d="M 0,0 H 3746 V 1763.83 H 0 Z" /></clipPath></defs><g
     transform="matrix(1.3333333,0,0,-1.3333333,0,235.17333)"
     id="g10"><g
       transform="scale(0.1)"
       id="g12"><g
         id="g14"><g
           clip-path="url(#clipPath20)"
           id="g16"><path
             id="path22"
             style="fill:#000000;fill-opacity:1;fill-rule:nonzero;stroke:none"
             d="M 3663.74,1111.94 V 828.508 L 3436.41,1111.94 H 3356.7 V 698.602 h 82.66 v 283.421 l 227.33,-283.421 h 79.73 v 413.338 h -82.68" /><path
             id="path24"
             style="fill:#000000;fill-opacity:1;fill-rule:nonzero;stroke:none"
             d="m 841.625,1111.94 -183.016,-413.299 91.711,0.039 144.301,330.31 v -0.01 l 0.145,0.29 64.933,-150.551 h -72.265 l -1.59,-1.59 1.59,1.625 -70.825,-70.859 1.184,0.035 174.383,-0.063 47.244,-109.226 h 91.5 L 947.891,1111.94 H 841.625" /><path
             id="path26"
             style="fill:#000000;fill-opacity:1;fill-rule:nonzero;stroke:none"
             d="M 2080.29,1111.94 V 698.66 h 306.92 v 70.684 h -224.87 v 100.14 h 195.16 v 72.133 h -195.16 v 99.463 h 186.8 l 70.86,70.86 h -339.71" /><path
             id="path28"
             style="fill:#000000;fill-opacity:1;fill-rule:nonzero;stroke:none"
             d="m 2748.82,1111.91 v -0.05 l -0.03,0.03 -70.04,-70.05 V 768.793 l 70.04,-70.043 0.03,0.02 v -0.051 h 244.72 v 0.051 l 0.03,-0.02 70.03,70.043 v 273.047 l -70.03,70.05 -0.03,-0.03 v 0.05 z m 4.09,-308.969 v 204.769 l 38.61,38.57 h 159.33 l 38.6,-38.57 V 802.941 l -38.6,-38.597 h -159.33 l -38.61,38.597" /><path
             id="path30"
             style="fill:#000000;fill-opacity:1;fill-rule:nonzero;stroke:none"
             d="M 0.195313,1111.94 V 698.59 H 82.8711 V 834.41 H 209.816 l 97.426,-135.82 h 97.414 L 304.281,837.375 h 0.016 l -0.051,0.051 63.25,63.25 v 142.164 l -69.008,69 -0.097,0.1 z M 82.8711,1041.08 H 259.961 l 32.531,-32.52 v -70.986 l -32.5,-32.297 H 82.8711 v 135.803" /><path
             id="path32"
             style="fill:#000000;fill-opacity:1;fill-rule:nonzero;stroke:none"
             d="M 1397.78,1111.94 V 698.621 h 306.91 l 82.78,82.77 v 248.089 l -82.66,82.46 z m 82.66,-70.84 h 185.99 l 38.38,-38.39 V 807.844 l -38.37,-38.371 h -186 V 1041.1" /><path
             id="path34"
             style="fill:#9d9fa2;fill-opacity:1;fill-rule:nonzero;stroke:none"
             d="m 0,10.4102 h 31.2422 v 434.16 H 0 Z" /><path
             id="path36"
             style="fill:#9d9fa2;fill-opacity:1;fill-rule:nonzero;stroke:none"
             d="m 128.875,444.57 h 32.551 L 440.023,57.2695 V 444.57 h 30.586 V 10.4102 H 438.074 L 159.477,392.488 V 10.4102 H 128.875 V 444.57" /><path
             id="path38"
             style="fill:#9d9fa2;fill-opacity:1;fill-rule:nonzero;stroke:none"
             d="m 565.637,89.8203 c 14.754,-17.8008 32.433,-32.332 53.051,-43.6211 20.609,-11.2773 45.667,-16.9179 75.187,-16.9179 16.918,0 32.438,1.957 46.543,5.8593 14.094,3.9102 26.246,9.6485 36.445,17.25 10.196,7.5899 18.11,17.1407 23.766,28.6407 5.629,11.5 8.461,24.8277 8.461,40.0387 0,16.039 -3.16,29.711 -9.449,41.008 -6.286,11.274 -14.633,20.711 -25.059,28.313 -10.41,7.589 -22.234,13.757 -35.469,18.539 -13.242,4.769 -26.586,9.121 -40.039,13.031 -16.492,4.328 -32.972,9.211 -49.472,14.641 -16.493,5.418 -31.231,12.578 -44.258,21.476 -13.016,8.891 -23.543,20.184 -31.563,33.852 -8.043,13.672 -12.047,31.34 -12.047,53.05 0,14.75 3.032,28.86 9.114,42.309 6.07,13.449 14.863,25.16 26.363,35.141 11.5,9.98 25.602,17.91 42.309,23.769 16.699,5.86 35.687,8.781 56.953,8.781 18.226,0 34.394,-1.941 48.496,-5.859 14.097,-3.902 26.465,-8.781 37.105,-14.641 10.625,-5.859 19.531,-12.261 26.688,-19.199 7.16,-6.953 13.121,-13.672 17.902,-20.179 l -22.141,-18.883 c -3.894,5.211 -8.89,10.75 -14.964,16.601 -6.079,5.86 -13.457,11.282 -22.133,16.282 -8.692,4.976 -18.988,9.109 -30.918,12.359 -11.942,3.258 -25.715,4.879 -41.34,4.879 -17.797,0 -33.09,-2.391 -45.883,-7.16 -12.808,-4.782 -23.336,-11.071 -31.57,-18.871 -8.25,-7.821 -14.32,-16.598 -18.231,-26.36 -3.894,-9.769 -5.851,-19.859 -5.851,-30.277 0,-15.621 3.578,-28.531 10.734,-38.731 7.16,-10.191 16.598,-18.652 28.321,-25.371 11.714,-6.742 24.835,-12.269 39.378,-16.609 14.539,-4.34 29.176,-8.473 43.938,-12.359 15.18,-3.911 30.371,-8.793 45.562,-14.653 15.18,-5.847 28.747,-13.668 40.684,-23.437 11.93,-9.75 21.691,-22.024 29.297,-36.774 7.578,-14.758 11.387,-32.976 11.387,-54.668 0,-18.672 -3.903,-35.4919 -11.719,-50.4489 C 823.41,55.6406 812.875,42.9492 799.641,32.5391 786.398,22.1211 770.688,14.0898 752.461,8.46094 734.23,2.82031 714.699,-0.0117188 693.875,-0.0117188 c -18.227,0 -35.152,1.9609388 -50.77,5.8632788 C 627.48,9.76172 613.262,14.8516 600.461,21.1484 587.66,27.4297 576.387,34.5898 566.617,42.6211 556.855,50.6484 548.93,59 542.855,67.6797 l 22.782,22.1406" /><path
             id="path40"
             style="fill:#9d9fa2;fill-opacity:1;fill-rule:nonzero;stroke:none"
             d="M 1033.65,416.578 H 865.059 V 444.57 H 1233.48 V 416.578 H 1064.9 V 10.4102 h -31.25 V 416.578" /><path
             id="path42"
             style="fill:#9d9fa2;fill-opacity:1;fill-rule:nonzero;stroke:none"
             d="m 1291.41,10.4102 h 31.25 v 434.16 h -31.25 z" /><path
             id="path44"
             style="fill:#9d9fa2;fill-opacity:1;fill-rule:nonzero;stroke:none"
             d="m 1420.29,444.57 h 32.55 L 1731.43,57.2695 V 444.57 h 30.59 V 10.4102 h -32.53 L 1450.89,392.488 V 10.4102 h -30.6 V 444.57" /><path
             id="path46"
             style="fill:#9d9fa2;fill-opacity:1;fill-rule:nonzero;stroke:none"
             d="m 2207.9,82.6602 c -2.6,-4.3516 -7.49,-11.0704 -14.65,-20.1797 -7.16,-9.1094 -17.15,-18.3399 -29.94,-27.6602 -12.8,-9.3398 -28.54,-17.4805 -47.19,-24.4101 -18.66,-6.94145 -40.79,-10.4219188 -66.39,-10.4219188 -31.25,0 -59.78,5.7617188 -85.6,17.2500188 -25.82,11.5 -47.96,27.4414 -66.39,47.8398 -18.45,20.3907 -32.66,44.4809 -42.64,72.2499 -9.99,27.774 -14.97,57.942 -14.97,90.492 0,31.66 4.98,61.282 14.97,88.852 9.98,27.547 24.19,51.629 42.64,72.238 18.43,20.61 40.57,36.789 66.39,48.5 25.82,11.711 54.35,17.57 85.6,17.57 25.6,0 47.73,-3.468 66.39,-10.41 18.65,-6.949 34.39,-15.082 47.19,-24.41 12.79,-9.34 22.78,-18.551 29.94,-27.672 7.16,-9.109 12.05,-15.84 14.65,-20.168 l -23.42,-16.269 c -2.61,3.461 -6.85,8.988 -12.7,16.59 -5.86,7.597 -14.11,15.3 -24.74,23.109 -10.64,7.809 -23.75,14.75 -39.38,20.828 -15.62,6.07 -34.5,9.121 -56.63,9.121 -27.78,0 -52.62,-5.109 -74.53,-15.308 -21.92,-10.192 -40.47,-24.192 -55.66,-41.969 -15.19,-17.813 -26.79,-38.731 -34.82,-62.82 -8.03,-24.082 -12.04,-50.024 -12.04,-77.782 0,-27.781 4.12,-53.699 12.37,-77.789 8.23,-24.082 19.95,-45.14 35.15,-63.1404 15.18,-18.0195 33.85,-32.1211 55.97,-42.3125 22.14,-10.1992 47.3,-15.2968 75.51,-15.2968 20.39,0 38.29,3.039 53.7,9.1171 15.41,6.0704 28.43,13.0235 39.06,20.8204 10.63,7.8203 19.09,15.5117 25.39,23.1093 6.28,7.5938 10.74,13.1211 13.35,16.6016 l 23.42,-16.2695" /><path
             id="path48"
             style="fill:#9d9fa2;fill-opacity:1;fill-rule:nonzero;stroke:none"
             d="m 2405.13,416.578 h -168.59 v 27.992 h 368.42 V 416.578 H 2436.38 V 10.4102 h -31.25 V 416.578" /><path
             id="path50"
             style="fill:#000000;fill-opacity:1;fill-rule:nonzero;stroke:none"
             d="m 203.672,1647 -54.168,-143.54 h 113.75 z M 419.809,1365.84 H 320.672 L 290.344,1439 H 125.125 L 97.5,1365.84 H 0 l 148.965,369.45 h 106.703 l 164.141,-369.45" /><path
             id="path52"
             style="fill:#000000;fill-opacity:1;fill-rule:nonzero;stroke:none"
             d="m 779.906,1735.29 h 80.168 v -369.45 h -92.097 v 230.77 L 668.313,1480.7 H 654.23 l -99.664,115.91 v -230.77 h -92.097 v 369.45 h 80.172 l 118.629,-137.06 118.636,137.06" /><path
             id="path54"
             style="fill:#000000;fill-opacity:1;fill-rule:nonzero;stroke:none"
             d="m 1022.46,1433.56 h 60.13 c 92.62,0 120.25,62.83 120.25,117.02 0,63.38 -34.13,116.99 -121.34,116.99 h -59.04 z m 70.97,301.73 c 134.87,0 204.19,-83.95 204.19,-185.25 0,-106.18 -67.15,-184.2 -214.49,-184.2 H 930.379 v 369.45 h 163.051" /><path
             id="path56"
             style="fill:#000000;fill-opacity:1;fill-rule:nonzero;stroke:none"
             d="m 1671.36,1647.69 h -190.51 l -116.13,116.14 h 422.75 v -422.76 l -116.11,116.13 v 190.49" /><path
             id="path58"
             style="fill:#000000;fill-opacity:1;fill-rule:nonzero;stroke:none"
             d="m 1480.72,1457.06 v 167.35 L 1361.16,1504.86 V 1337.5 h 167.32 l 119.56,119.56 h -167.32" /></g></g></g></g></svg>