<svg xmlns="http://www.w3.org/2000/svg" xmlns:xlink="http://www.w3.org/1999/xlink" width="100" height="100" viewBox="0 0 100 100"><g><g transform="translate(50 50) scale(0.69 0.69) rotate(0) translate(-50 -50)" style="fill:#FF0000"><svg fill="#FF0000" xmlns="http://www.w3.org/2000/svg" xmlns:xlink="http://www.w3.org/1999/xlink" version="1.1" x="0px" y="0px" viewBox="0 0 100 100" enable-background="new 0 0 100 100" xml:space="preserve"><path d="M80.23,11.53c-5.465-3.661-14.648-5.847-24.565-5.847c-12.57,0-23.316,3.355-28.746,8.976  c-4.927,5.1-9.545,13.373-8.242,18.693h-2.753c-1.104,0-2,0.896-2,2v10.182c0,1.104,0.896,2,2,2h1.452  c-6.232,9.422-6.185,10.32-5.938,11.31c1.1,4.42,9.326,3.863,9.326,3.863l0.099,13.535c0.002,0.277,3.327,5.919,5.05,5.984  c2.17,0.082,10.216,0.208,10.938,0.273c0.581,0.451,1.72,1.887,1.981,2.453c0.147,0.804,0.306,4.42,0.371,7.41  c0.023,1.087,0.912,1.957,2,1.957h36.201c1.104,0,2-0.896,2-2V70.27c3.203-2.119,12.667-9.533,13.867-23.785  C94.411,32.905,94.219,20.902,80.23,11.53z M80.75,16.902l-5.014,7.604c-1.151-1.324-3.423-3.445-7.033-4.779  c1.095-1.36,3.987-6.192,4.572-7.228C76.75,13.594,79.031,15.438,80.75,16.902z M53.583,50.789V33.247h17.542v17.542H53.583z   M57.981,90.317h-1.125V79.062l1.125-0.071V90.317z M46.606,79.708v10.609h-1.313V79.79L46.606,79.708z M47.606,79.645l1.313-0.083  v10.755h-1.313V79.645z M49.919,79.499l1.313-0.083v10.901h-1.313V79.499z M52.231,79.353l1.313-0.083v11.046h-1.313V79.353z   M54.544,79.208l1.313-0.083v11.192h-1.313V79.208z M48.356,77.593V70.25c0-0.253-0.096-0.498-0.27-0.683l-3.01-3.22  c1.516-1.477,3.075-2.986,4.203-3.386c1.707-0.605,4.285,0.802,5.133,1.396c0.276,0.194,0.635,0.236,0.947,0.11l2.444-0.98  c0.321-0.129,0.552-0.414,0.613-0.754c0.296-1.672,2.222-9.943,2.222-9.943v3.417c0,0.276,0.224,0.5,0.5,0.5s0.5-0.224,0.5-0.5  v-3.417h1.25v3.417c0,0.276,0.224,0.5,0.5,0.5s0.5-0.224,0.5-0.5v-3.417h1.125v3.417c0,0.276,0.224,0.5,0.5,0.5s0.5-0.224,0.5-0.5  v-3.417h0.781v16.088c-2.703,4.484-3.943,6.675-4.443,7.834L48.356,77.593z M33.252,50.112c2.281-0.625,5.9-2.098,6.107-2.138  c1.008,0.284,13.15,4.81,13.206,4.812v3.42c0,0.276,0.224,0.5,0.5,0.5s0.5-0.224,0.5-0.5v-3.417h0.958v3.417  c0,0.276,0.224,0.5,0.5,0.5s0.5-0.224,0.5-0.5v-3.417h0.958v3.417c0,0.276,0.224,0.5,0.5,0.5c0.153,0,0.285-0.073,0.377-0.181  c-0.289,2.002-0.606,4.05-0.818,5.314l-1.446,0.58c-1.124-0.684-4.253-2.349-6.698-1.48c-1.558,0.553-7.438,6.563-8.938,7.104  c-0.512,0.185-3.542,0.292-2.638-2.904C38.005,60.947,34.639,53.047,33.252,50.112z M31.266,50.589  c0.892,1.837,2.215,4.907,3.051,7.845h-6.773v-8.106C28.688,50.662,29.942,50.803,31.266,50.589z M57.576,31.247h-2.053v-2.225  C55.676,29.21,56.937,30.797,57.576,31.247z M57.203,26.685c0-1.972,1.604-3.576,3.576-3.576s3.576,1.604,3.576,3.576  s-1.604,3.576-3.576,3.576S57.203,28.656,57.203,26.685z M54.523,31.247h-1.417v-3.458c0-0.276-0.224-0.5-0.5-0.5  s-0.5,0.224-0.5,0.5v3.596c-0.155,0.086-0.279,0.21-0.37,0.362H48.19c-0.276,0-0.5,0.224-0.5,0.5s0.224,0.5,0.5,0.5h3.394v1.565  H48.19c-0.276,0-0.5,0.224-0.5,0.5s0.224,0.5,0.5,0.5h3.394v1.813H48.19c-0.276,0-0.5,0.224-0.5,0.5s0.224,0.5,0.5,0.5h3.394v1.719  H48.19c-0.276,0-0.5,0.224-0.5,0.5s0.224,0.5,0.5,0.5h3.394v1.844H48.19c-0.276,0-0.5,0.224-0.5,0.5s0.224,0.5,0.5,0.5h3.394v2.031  H48.19c-0.276,0-0.5,0.224-0.5,0.5s0.224,0.5,0.5,0.5h3.394v1.688H48.19c-0.266,0-0.477,0.208-0.494,0.47  c-3.679-1.378-7.549-2.803-8.045-2.886c-0.089-0.015-0.177-0.022-0.267-0.022c-0.511,0-4.633,1.678-6.98,2.301  c1.733-2.725,2.703-6.186,2.703-9.77c0-3.216-0.767-6.202-2.075-8.667c11.691-0.85,11.922-2.826,12-3.489  c0.182-1.558,2.026-5.693,5.521-6.843c0.543,0.426,3.315,6.881,4.012,8.093C54.538,27.653,54.523,31.247,54.523,31.247z   M51.583,49.406v0.934c-0.749-0.283-1.593-0.602-2.475-0.934H51.583z M34.807,60.434c0.076,0.38,0.136,0.749,0.184,1.109H24.755  l-0.005-0.697c-0.001-0.142-0.02-0.279-0.049-0.412H34.807z M35.055,63.761H24.771l-0.009-1.218H35.08  C35.102,62.976,35.097,63.385,35.055,63.761z M24.787,65.98l-0.009-1.219h10.074c-0.121,0.44-0.198,0.846-0.237,1.219H24.787z   M24.795,66.98h9.804c0.039,0.469,0.142,0.873,0.289,1.218H24.803L24.795,66.98z M24.827,71.417h8.032l-0.885,1.208h-7.139  L24.827,71.417z M33.591,70.417H24.82l-0.009-1.218h9.672L33.591,70.417z M57.863,52.789c-0.1,0.827-0.235,1.828-0.382,2.871v-2.871  H57.863z M65.975,74.208h9.426v1.083H65.359C65.55,74.951,65.757,74.589,65.975,74.208z M75.401,73.208h-8.848  c0.183-0.314,0.37-0.634,0.561-0.958h8.287V73.208z M64.804,76.292h10.598v1.339H64.116C64.234,77.36,64.476,76.892,64.804,76.292z   M75.401,71.25h-7.695c0.217-0.365,0.436-0.732,0.654-1.094h7.042V71.25z M71.773,30.905v-3.115c0-0.276-0.224-0.5-0.5-0.5  s-0.5,0.224-0.5,0.5v3.458h-1.125v-3.458c0-0.276-0.224-0.5-0.5-0.5s-0.5,0.224-0.5,0.5v3.458h-1.25v-3.458  c0-0.276-0.224-0.5-0.5-0.5s-0.5,0.224-0.5,0.5v3.458H63.98c1.435-1.01,2.374-2.679,2.374-4.563c0-1.178-0.368-2.272-0.994-3.174  c0.386-0.4,1.115-1.169,1.966-2.144c4.106,1.321,6.44,3.853,7.272,4.907L71.773,30.905z M55.666,9.683  c5.778,0.035,11.232,0.771,15.687,2.153c-2.228,4.122-6.399,9.21-7.409,10.261c-0.9-0.623-1.991-0.988-3.166-0.988  c-2.48,0-4.587,1.627-5.309,3.871c-0.346-0.739-3.053-7.959-4.907-7.709c-4.504,0.607-7.148,6.314-7.498,8.692  c-0.91,0.8-6.447,1.641-11.24,1.946c-1.69-2.287-3.924-3.876-6.424-4.451C30.437,15.5,35.875,9.563,55.666,9.683z M24.416,25.291  c4.879,0.723,8.742,6.368,8.69,13.208c-0.044,5.782-3.439,10.124-3.469,10.177c-2.773-0.168-5.142-2.161-6.162-3.158h2.387  c0.167,0,0.33-0.042,0.477-0.121c0.213-0.116,2.086-1.238,2.086-4.955c0-3.843-1.912-4.872-2.129-4.977  c-0.135-0.065-0.283-0.099-0.433-0.099h-2.633c0.002-0.182-1.025-3.195-0.993-5.104C22.254,29.221,23.33,27.439,24.416,25.291z   M17.924,37.352l7.608,0.016c0.283,0.278,0.892,1.107,0.892,3.075c0,1.943-0.618,2.79-0.901,3.076l-7.599,0.016V37.352z   M22.377,47.24c0.893,0.834,2.349,1.996,4.167,2.738v8.456l-9.384-0.032c-0.011-0.001-0.898-0.079-1.434-0.711  C16.67,55.965,19.592,51.413,22.377,47.24z M24.858,75.775l-0.008-1.15h7.631c0.319,0,0.619-0.152,0.807-0.409l3.164-4.321  c1.396,0.747,3.169,0.585,4.078,0.169c0.981-0.451,2.02-1.315,3.106-2.331l2.721,2.911v7.075l-11.209,0.706  c-0.726-0.018-6.72-0.113-8.74-0.184C26.016,77.851,25.361,76.808,24.858,75.775z M40.135,80.115l1.847-0.116v2.439  C41.505,81.687,40.841,80.83,40.135,80.115z M42.981,86.521v-6.585l1.313-0.083v10.464H43.15  C43.104,88.795,43.047,87.538,42.981,86.521z M59.981,90.317V78.865l15.42-0.235v11.687H59.981z M89.282,46.149  C88,62.167,75.852,67.845,75.672,68.156h-6.878V52.789h0.729v3.417c0,0.276,0.224,0.5,0.5,0.5s0.5-0.224,0.5-0.5v-3.417h1.207v3.417  c0,0.276,0.224,0.5,0.5,0.5s0.5-0.224,0.5-0.5v-3.64c0.235-0.183,0.396-0.456,0.396-0.776v-2.383h3.521c0.276,0,0.5-0.224,0.5-0.5  s-0.224-0.5-0.5-0.5h-3.521v-1.688h3.521c0.276,0,0.5-0.224,0.5-0.5s-0.224-0.5-0.5-0.5h-3.521v-2.031h3.521  c0.276,0,0.5-0.224,0.5-0.5s-0.224-0.5-0.5-0.5h-3.521v-1.844h3.521c0.276,0,0.5-0.224,0.5-0.5s-0.224-0.5-0.5-0.5h-3.521v-1.719  h3.521c0.276,0,0.5-0.224,0.5-0.5s-0.224-0.5-0.5-0.5h-3.521v-1.813h3.521c0.276,0,0.5-0.224,0.5-0.5s-0.224-0.5-0.5-0.5h-3.521  v-1.565h3.625c0.276,0,0.5-0.224,0.5-0.5s-0.224-0.5-0.5-0.5h-3.149l8.659-13.504C90.216,25.841,90.165,35.111,89.282,46.149z   M79.528,53.263c-1.838,0-3.333,1.496-3.333,3.333s1.496,3.333,3.333,3.333s3.333-1.495,3.333-3.333S81.366,53.263,79.528,53.263z   M79.528,57.929c-0.735,0-1.333-0.598-1.333-1.333c0-0.735,0.598-1.333,1.333-1.333s1.333,0.598,1.333,1.333  C80.862,57.331,80.264,57.929,79.528,57.929z M79.344,27.438c0,1.813,1.475,3.288,3.288,3.288s3.288-1.475,3.288-3.288  s-1.475-3.288-3.288-3.288S79.344,25.625,79.344,27.438z M83.919,27.438c0,0.71-0.578,1.288-1.288,1.288s-1.288-0.578-1.288-1.288  c0-0.71,0.578-1.288,1.288-1.288S83.919,26.729,83.919,27.438z M66.731,44.433c-1.344,0-2.438,1.093-2.438,2.438  s1.093,2.438,2.438,2.438s2.438-1.093,2.438-2.438S68.076,44.433,66.731,44.433z M66.731,48.308c-0.792,0-1.438-0.645-1.438-1.438  s0.645-1.438,1.438-1.438s1.438,0.645,1.438,1.438S67.524,48.308,66.731,48.308z M83.945,41.685c0,1.011,0.822,1.833,1.833,1.833  s1.833-0.822,1.833-1.833s-0.822-1.833-1.833-1.833S83.945,40.674,83.945,41.685z M86.611,41.685c0,0.459-0.374,0.833-0.833,0.833  s-0.833-0.374-0.833-0.833s0.374-0.833,0.833-0.833S86.611,41.226,86.611,41.685z M38.882,63.831c0,0.712,0.58,1.292,1.292,1.292  c0.712,0,1.292-0.58,1.292-1.292s-0.58-1.292-1.292-1.292C39.462,62.539,38.882,63.119,38.882,63.831z M40.466,63.831  c0,0.161-0.131,0.292-0.292,0.292c-0.161,0-0.292-0.131-0.292-0.292s0.131-0.292,0.292-0.292  C40.335,63.539,40.466,63.67,40.466,63.831z M38.799,53.289c1.034,0,1.875-0.841,1.875-1.875s-0.841-1.875-1.875-1.875  s-1.875,0.841-1.875,1.875S37.766,53.289,38.799,53.289z M38.799,50.539c0.482,0,0.875,0.393,0.875,0.875s-0.393,0.875-0.875,0.875  s-0.875-0.393-0.875-0.875S38.317,50.539,38.799,50.539z M70.438,84.276c-0.862,0-1.563,0.701-1.563,1.563s0.701,1.563,1.563,1.563  s1.563-0.701,1.563-1.563S71.3,84.276,70.438,84.276z M70.438,86.402c-0.311,0-0.563-0.252-0.563-0.563s0.252-0.563,0.563-0.563  s0.563,0.252,0.563,0.563S70.749,86.402,70.438,86.402z M40.174,30.761c-1.034,0-1.875,0.841-1.875,1.875s0.841,1.875,1.875,1.875  s1.875-0.841,1.875-1.875S41.208,30.761,40.174,30.761z M40.174,33.511c-0.482,0-0.875-0.393-0.875-0.875s0.393-0.875,0.875-0.875  s0.875,0.393,0.875,0.875S40.657,33.511,40.174,33.511z M56.223,70.822c-1.034,0-1.875,0.841-1.875,1.875s0.841,1.875,1.875,1.875  s1.875-0.841,1.875-1.875S57.256,70.822,56.223,70.822z M56.223,73.572c-0.482,0-0.875-0.393-0.875-0.875s0.393-0.875,0.875-0.875  s0.875,0.393,0.875,0.875S56.705,73.572,56.223,73.572z M8.888,40.167c0,0.276-0.224,0.5-0.5,0.5s-0.539-0.224-0.539-0.5  s0.185-0.5,0.461-0.5h0.078C8.664,39.667,8.888,39.89,8.888,40.167z M10.317,40.167c0,0.276-0.185,0.5-0.461,0.5H9.778  c-0.276,0-0.5-0.224-0.5-0.5s0.224-0.5,0.5-0.5S10.317,39.89,10.317,40.167z M11.317,40.667h-0.078c-0.276,0-0.5-0.224-0.5-0.5  s0.224-0.5,0.5-0.5s0.539,0.224,0.539,0.5S11.594,40.667,11.317,40.667z M12.278,40.167c0-0.276,0.224-0.5,0.5-0.5  s0.539,0.224,0.539,0.5s-0.185,0.5-0.461,0.5h-0.078C12.502,40.667,12.278,40.443,12.278,40.167z M20.585,40.667h-0.078  c-0.276,0-0.5-0.224-0.5-0.5s0.224-0.5,0.5-0.5s0.539,0.224,0.539,0.5S20.862,40.667,20.585,40.667z M23.31,40.167  c0-0.276,0.224-0.5,0.5-0.5s0.539,0.224,0.539,0.5s-0.185,0.5-0.461,0.5H23.81C23.533,40.667,23.31,40.443,23.31,40.167z   M19.468,40.167c0,0.276-0.185,0.5-0.461,0.5h-0.078c-0.276,0-0.5-0.224-0.5-0.5s0.224-0.5,0.5-0.5S19.468,39.89,19.468,40.167z   M21.731,40.167c0-0.276,0.224-0.5,0.5-0.5s0.539,0.224,0.539,0.5s-0.185,0.5-0.461,0.5h-0.078  C21.955,40.667,21.731,40.443,21.731,40.167z"></path></svg></g></g></svg>