<?xml version="1.0" encoding="UTF-8" standalone="no"?>
<svg
   xmlns:dc="http://purl.org/dc/elements/1.1/"
   xmlns:cc="http://creativecommons.org/ns#"
   xmlns:rdf="http://www.w3.org/1999/02/22-rdf-syntax-ns#"
   xmlns:svg="http://www.w3.org/2000/svg"
   xmlns="http://www.w3.org/2000/svg"
   viewBox="0 0 342.90668 401.23999"
   height="401.23999"
   width="342.90668"
   xml:space="preserve"
   id="svg2"
   version="1.1"><metadata
     id="metadata8"><rdf:RDF><cc:Work
         rdf:about=""><dc:format>image/svg+xml</dc:format><dc:type
           rdf:resource="http://purl.org/dc/dcmitype/StillImage" /></cc:Work></rdf:RDF></metadata><defs
     id="defs6"><clipPath
       id="clipPath20"
       clipPathUnits="userSpaceOnUse"><path
         id="path18"
         d="M 0,0 H 2571.82 V 3009 H 0 Z" /></clipPath></defs><g
     transform="matrix(1.3333333,0,0,-1.3333333,0,401.24)"
     id="g10"><g
       transform="scale(0.1)"
       id="g12"><g
         id="g14"><g
           clip-path="url(#clipPath20)"
           id="g16"><path
             id="path22"
             style="fill:#FF0000;fill-opacity:1;fill-rule:nonzero;stroke:none"
             d="M 0.0351563,3009.26 V 1526.69 L 1285.92,756.109 0.0351563,3009.26" /><path
             id="path24"
             style="fill:#FF0000;fill-opacity:1;fill-rule:nonzero;stroke:none"
             d="M 2571.8,3009.26 V 1526.69 L 1285.92,756.109 2571.8,3009.26" /><path
             id="path26"
             style="fill:#FF0000;fill-opacity:1;fill-rule:nonzero;stroke:none"
             d="m 1594.56,265.941 h 11.4531 V 425.05 H 1594.56 Z" /><path
             id="path28"
             style="fill:#FF0000;fill-opacity:1;fill-rule:nonzero;stroke:none"
             d="m 1747.77,425.059 v -141.93 l -102.09,141.93 h -11.92 v -159.11 h 11.21 v 140.012 l 102.09,-140.012 h 11.92 v 159.11 h -11.21" /><path
             id="path30"
             style="fill:#FF0000;fill-opacity:1;fill-rule:nonzero;stroke:none"
             d="m 1795.72,295.051 c 5.41,-6.531 11.88,-11.84 19.43,-15.961 7.57,-4.16 16.74,-6.231 27.57,-6.231 6.19,0 11.86,0.723 17.06,2.172 5.15,1.43 9.6,3.528 13.35,6.321 3.72,2.757 6.62,6.269 8.7,10.488 2.06,4.211 3.1,9.09 3.1,14.66 0,5.879 -1.16,10.898 -3.45,15.039 -2.31,4.141 -5.37,7.57 -9.2,10.371 -3.8,2.762 -8.15,5.039 -13,6.801 -4.84,1.73 -9.74,3.32 -14.66,4.769 -6.04,1.59 -12.1,3.372 -18.14,5.352 -6.03,2 -11.45,4.629 -16.21,7.879 -4.76,3.277 -8.63,7.367 -11.57,12.391 -2.94,5.019 -4.41,11.488 -4.41,19.468 0,5.391 1.12,10.571 3.33,15.489 2.24,4.941 5.45,9.222 9.67,12.882 4.21,3.649 9.37,6.571 15.51,8.707 6.12,2.153 13.07,3.211 20.86,3.211 6.68,0 12.61,-0.699 17.78,-2.129 5.16,-1.441 9.69,-3.218 13.59,-5.378 3.9,-2.133 7.15,-4.493 9.78,-7.032 2.63,-2.55 4.81,-5.019 6.55,-7.398 l -8.1,-6.902 c -1.43,1.878 -3.27,3.921 -5.49,6.062 -2.21,2.137 -4.92,4.137 -8.11,5.957 -3.18,1.84 -6.94,3.352 -11.34,4.551 -4.35,1.199 -9.41,1.781 -15.13,1.781 -6.53,0 -12.14,-0.883 -16.82,-2.621 -4.69,-1.77 -8.55,-4.059 -11.57,-6.91 -3.02,-2.879 -5.24,-6.09 -6.67,-9.66 -1.43,-3.59 -2.15,-7.289 -2.15,-11.102 0,-5.719 1.31,-10.449 3.94,-14.187 2.6,-3.75 6.07,-6.852 10.37,-9.321 4.29,-2.468 9.1,-4.511 14.43,-6.07 5.33,-1.59 10.7,-3.102 16.11,-4.531 5.55,-1.43 11.12,-3.219 16.69,-5.367 5.57,-2.141 10.53,-5 14.9,-8.571 4.37,-3.609 7.96,-8.082 10.74,-13.492 2.79,-5.41 4.18,-12.098 4.18,-20.039 0,-6.84 -1.45,-13 -4.29,-18.488 -2.87,-5.492 -6.73,-10.133 -11.57,-13.942 -4.86,-3.82 -10.63,-6.761 -17.31,-8.84 -6.67,-2.058 -13.83,-3.101 -21.45,-3.101 -6.69,0 -12.88,0.73 -18.61,2.16 -5.72,1.43 -10.94,3.293 -15.63,5.609 -4.7,2.293 -8.82,4.922 -12.39,7.864 -3.58,2.937 -6.49,6 -8.72,9.168 l 8.35,8.121" /><path
             id="path32"
             style="fill:#FF0000;fill-opacity:1;fill-rule:nonzero;stroke:none"
             d="m 1919.38,425.059 v -10.258 h 61.78 V 265.949 h 11.45 v 148.852 h 61.78 v 10.258 h -135.01" /><path
             id="path34"
             style="fill:#FF0000;fill-opacity:1;fill-rule:nonzero;stroke:none"
             d="m 2082.15,265.941 h 11.4336 V 425.05 H 2082.15 Z" /><path
             id="path36"
             style="fill:#FF0000;fill-opacity:1;fill-rule:nonzero;stroke:none"
             d="m 2235.34,425.059 v -141.93 l -102.09,141.93 h -11.92 v -159.11 h 11.19 v 140.012 l 102.11,-140.012 h 11.92 v 159.11 h -11.21" /><path
             id="path38"
             style="fill:#FF0000;fill-opacity:1;fill-rule:nonzero;stroke:none"
             d="m 2409.06,292.43 c -0.94,-1.59 -2.75,-4.059 -5.36,-7.391 -2.62,-3.359 -6.29,-6.73 -10.98,-10.141 -4.68,-3.429 -10.46,-6.41 -17.29,-8.957 -6.84,-2.531 -14.96,-3.8 -24.33,-3.8 -11.45,0 -21.9,2.109 -31.37,6.308 -9.47,4.211 -17.57,10.063 -24.33,17.531 -6.76,7.489 -11.96,16.309 -15.63,26.469 -3.64,10.192 -5.49,21.231 -5.49,33.172 0,11.609 1.85,22.449 5.49,32.551 3.67,10.109 8.87,18.93 15.63,26.476 6.76,7.551 14.86,13.473 24.33,17.793 9.47,4.289 19.92,6.43 31.37,6.43 9.37,0 17.49,-1.281 24.33,-3.812 6.83,-2.547 12.61,-5.547 17.29,-8.957 4.69,-3.411 8.36,-6.801 10.98,-10.133 2.61,-3.34 4.42,-5.809 5.36,-7.387 l -8.57,-5.98 c -0.96,1.289 -2.51,3.308 -4.67,6.089 -2.15,2.789 -5.15,5.61 -9.06,8.469 -3.9,2.871 -8.7,5.41 -14.43,7.629 -5.72,2.223 -12.64,3.332 -20.76,3.332 -10.17,0 -19.27,-1.859 -27.29,-5.59 -8.04,-3.742 -14.84,-8.859 -20.41,-15.39 -5.57,-6.532 -9.82,-14.192 -12.76,-23.012 -2.95,-8.828 -4.42,-18.34 -4.42,-28.508 0,-10.18 1.51,-19.691 4.53,-28.512 3.04,-8.8 7.32,-16.55 12.88,-23.129 5.57,-6.609 12.42,-11.769 20.53,-15.511 8.1,-3.731 17.33,-5.61 27.67,-5.61 7.47,0 14.03,1.141 19.66,3.352 5.65,2.219 10.43,4.769 14.31,7.648 3.91,2.84 7,5.672 9.32,8.45 2.29,2.781 3.94,4.8 4.9,6.082 l 8.57,-5.961" /><path
             id="path40"
             style="fill:#FF0000;fill-opacity:1;fill-rule:nonzero;stroke:none"
             d="m 2436.81,425.059 v -10.258 h 61.78 V 265.949 h 11.45 v 148.852 h 61.78 v 10.258 h -135.01" /><path
             id="path42"
             style="fill:#c2c3c1;fill-opacity:1;fill-rule:nonzero;stroke:none"
             d="m 1458.67,428.871 v -112.84 l -90.5,112.84 h -31.74 V 264.289 h 32.92 v 112.859 l 90.5,-112.859 h 31.74 v 164.582 h -32.92" /><path
             id="path44"
             style="fill:#c2c3c1;fill-opacity:1;fill-rule:nonzero;stroke:none"
             d="m 335.02,428.871 -72.875,-164.562 36.523,0.019 57.445,131.524 v -0.02 l 0.063,0.117 25.859,-59.918 h -28.762 l -0.628,-0.652 -27.586,-27.559 h 0.472 l 69.422,-0.019 18.824,-43.492 h 36.43 l -72.879,164.562 z m 17.605,-93.492 h 0.02 l 0.628,0.652 -0.648,-0.652" /><path
             id="path46"
             style="fill:#c2c3c1;fill-opacity:1;fill-rule:nonzero;stroke:none"
             d="M 828.211,428.871 V 264.309 h 122.184 v 28.16 h -89.5 v 39.863 h 77.699 v 28.738 h -77.699 v 39.602 h 74.367 l 28.191,28.199 H 828.211" /><path
             id="path48"
             style="fill:#c2c3c1;fill-opacity:1;fill-rule:nonzero;stroke:none"
             d="m 1094.39,428.871 v -0.019 l -27.9,-27.883 V 292.23 l 27.9,-27.878 v 0.019 -0.019 h 97.44 v 0.019 -0.019 l 27.9,27.878 v 108.739 l -27.9,27.883 v 0.019 z m 1.62,-123.012 v 81.52 l 15.38,15.351 h 63.44 l 15.37,-15.351 v -81.52 l -15.37,-15.39 h -63.44 l -15.38,15.39" /><path
             id="path50"
             style="fill:#c2c3c1;fill-opacity:1;fill-rule:nonzero;stroke:none"
             d="M 0,428.871 V 264.289 h 32.918 v 54.082 h 50.5468 l 38.7772,-54.082 h 38.805 l -39.981,55.25 v 0.02 l -0.015,0.023 25.191,25.18 v 56.597 l -27.469,27.473 -0.039,0.039 z m 32.918,-28.199 h 70.504 l 12.961,-12.961 v -28.25 L 103.441,346.602 H 32.918 v 54.07" /><path
             id="path52"
             style="fill:#c2c3c1;fill-opacity:1;fill-rule:nonzero;stroke:none"
             d="M 556.461,428.871 V 264.309 h 122.187 l 32.977,32.961 v 98.781 l -32.918,32.82 z m 32.918,-28.199 h 74.055 l 15.273,-15.293 v -77.578 l -15.273,-15.27 h -74.055 v 108.141" /><path
             id="path54"
             style="fill:#c2c3c1;fill-opacity:1;fill-rule:nonzero;stroke:none"
             d="m 919.52,163.441 h 13.156 L 991.063,17.9414 1049.23,163.441 h 12.44 L 996.336,3.82031 H 984.848 L 919.52,163.441" /><path
             id="path56"
             style="fill:#c2c3c1;fill-opacity:1;fill-rule:nonzero;stroke:none"
             d="m 1134.9,163.441 h 95.72 v -10.769 h -84.25 V 92.3594 h 65.82 V 81.6016 h -65.82 V 14.5898 h 90.48 V 3.82031 H 1134.9 V 163.441" /><path
             id="path58"
             style="fill:#c2c3c1;fill-opacity:1;fill-rule:nonzero;stroke:none"
             d="m 1426.62,68.6797 h -42.6 v 10.7617 h 54.07 V 19.6211 c -2.71,-2.3906 -5.96,-4.7422 -9.8,-7.0508 -3.83,-2.3203 -8.26,-4.42967 -13.28,-6.35936 -5.04,-1.90235 -10.68,-3.41016 -16.99,-4.53906 C 1391.72,0.550781 1384.64,0 1376.84,0 c -11.49,0 -22.02,2.03906 -31.59,6.10156 -9.58,4.07034 -17.76,9.82034 -24.52,17.23044 -6.79,7.4063 -12.06,16.2696 -15.8,26.5664 -3.75,10.2735 -5.63,21.5821 -5.63,33.8633 0,11.6367 1.88,22.5193 5.63,32.6603 3.74,10.117 9.01,18.976 15.8,26.566 6.76,7.563 14.94,13.512 24.52,17.821 9.57,4.312 20.1,6.453 31.59,6.453 9.41,0 17.51,-1.262 24.29,-3.821 6.77,-2.55 12.47,-5.531 17.12,-8.961 4.63,-3.441 8.25,-6.832 10.88,-10.179 2.63,-3.332 4.43,-5.821 5.37,-7.41 l -8.6,-5.981 c -0.95,1.25 -2.55,3.289 -4.79,6.078 -2.23,2.801 -5.31,5.621 -9.21,8.512 -3.92,2.859 -8.65,5.41 -14.24,7.66 -5.59,2.238 -12.13,3.34 -19.62,3.34 -10.38,0 -19.67,-1.871 -27.88,-5.629 -8.22,-3.75 -15.16,-8.883 -20.83,-15.43 -5.66,-6.55 -10.01,-14.242 -13.03,-23.082 -3.04,-8.859 -4.55,-18.3902 -4.55,-28.5973 0,-10.2226 1.47,-19.75 4.43,-28.5898 2.94,-8.8828 7.25,-16.6133 12.92,-23.2305 5.67,-6.6133 12.53,-11.8125 20.59,-15.5508 8.03,-3.75 17.09,-5.6289 27.15,-5.6289 12.27,0 22.39,1.3594 30.27,4.0781 7.9,2.711 14.39,5.8985 19.51,9.5704 v 44.2695" /><path
             id="path60"
             style="fill:#c2c3c1;fill-opacity:1;fill-rule:nonzero;stroke:none"
             d="m 1613.99,66.0586 -33.25,82.7934 -33.27,-82.7934 z m -38.53,97.3824 h 11.49 L 1652.28,3.83203 h -13.16 L 1618.3,55.2695 h -75.15 L 1522.57,3.83203 h -12.43 l 65.32,159.60897" /></g></g></g></g></svg>